HIERARCHY
ROOT Hips
{
	OFFSET 0.053599 88.859886 3.107447
	CHANNELS 6 Xposition Yposition Zposition Zrotation Yrotation Xrotation 
	JOINT Spine
	{
		OFFSET -0.000000 8.814246 -2.080107
		CHANNELS 3 Zrotation Yrotation Xrotation
		JOINT Spine1
		{
			OFFSET 0.000000 8.844141 0.000000
			CHANNELS 3 Zrotation Yrotation Xrotation
			JOINT Spine2
			{
				OFFSET -0.000000 11.682268 0.000000
				CHANNELS 3 Zrotation Yrotation Xrotation
				JOINT Spine3
				{
					OFFSET 0.000000 11.746700 0.000000
					CHANNELS 3 Zrotation Yrotation Xrotation
					JOINT Neck
					{
						OFFSET -0.000000 17.658264 -0.000000
						CHANNELS 3 Zrotation Yrotation Xrotation
						JOINT Neck1
						{
							OFFSET -0.000000 5.101515 -0.000000
							CHANNELS 3 Zrotation Yrotation Xrotation
							JOINT Head
							{
								OFFSET 0.000000 5.101515 0.000000
								CHANNELS 3 Zrotation Yrotation Xrotation
								JOINT HeadEnd
								{
									OFFSET 0.000000 11.655085 0.000000
									CHANNELS 3 Zrotation Yrotation Xrotation
									End Site
									{
										OFFSET 0.000000 0.000000 0.000000
									}
								}
							}
						}
					}
					JOINT RightShoulder
					{
						OFFSET -2.625389 11.175210 0.000000
						CHANNELS 3 Zrotation Yrotation Xrotation
						JOINT RightArm
						{
							OFFSET -0.000000 10.434715 -0.000000
							CHANNELS 3 Zrotation Yrotation Xrotation
							JOINT RightForeArm
							{
								OFFSET -0.000000 29.628420 0.000000
								CHANNELS 3 Zrotation Yrotation Xrotation
								JOINT RightHand
								{
									OFFSET -0.000000 22.857611 0.000000
									CHANNELS 3 Zrotation Yrotation Xrotation
									JOINT RightHandThumb1
									{
										OFFSET -2.867323 3.959563 2.944291
										CHANNELS 3 Zrotation Yrotation Xrotation
										JOINT RightHandThumb2
										{
											OFFSET 0.000000 3.350399 0.000000
											CHANNELS 3 Zrotation Yrotation Xrotation
											JOINT RightHandThumb3
											{
												OFFSET 0.000000 3.756509 -0.000000
												CHANNELS 3 Zrotation Yrotation Xrotation
												JOINT RightHandThumb4
												{
													OFFSET 0.000000 3.147345 0.000000
													CHANNELS 3 Zrotation Yrotation Xrotation
													End Site
													{
														OFFSET 0.000000 0.000000 0.000000
													}
												}
											}
										}
									}
									JOINT RightHandIndex1
									{
										OFFSET -0.086752 10.030893 2.345280
										CHANNELS 3 Zrotation Yrotation Xrotation
										JOINT RightHandIndex2
										{
											OFFSET -0.000000 4.061090 0.000000
											CHANNELS 3 Zrotation Yrotation Xrotation
											JOINT RightHandIndex3
											{
												OFFSET -0.000000 3.248873 0.000000
												CHANNELS 3 Zrotation Yrotation Xrotation
												JOINT RightHandIndex4
												{
													OFFSET 0.000000 2.639709 -0.000000
													CHANNELS 3 Zrotation Yrotation Xrotation
													End Site
													{
														OFFSET 0.000000 0.000000 0.000000
													}
												}
											}
										}
									}
									JOINT RightHandMiddle1
									{
										OFFSET 0.104102 9.502952 0.006768
										CHANNELS 3 Zrotation Yrotation Xrotation
										JOINT RightHandMiddle2
										{
											OFFSET 0.000000 4.568727 0.000000
											CHANNELS 3 Zrotation Yrotation Xrotation
											JOINT RightHandMiddle3
											{
												OFFSET 0.000000 3.654981 -0.000000
												CHANNELS 3 Zrotation Yrotation Xrotation
												JOINT RightHandMiddle4
												{
													OFFSET -0.000000 2.741236 -0.000000
													CHANNELS 3 Zrotation Yrotation Xrotation
													End Site
													{
														OFFSET 0.000000 0.000000 0.000000
													}
												}
											}
										}
									}
									JOINT RightHandRing1
									{
										OFFSET 0.086752 8.921708 -2.267442
										CHANNELS 3 Zrotation Yrotation Xrotation
										JOINT RightHandRing2
										{
											OFFSET -0.000000 4.061090 0.000000
											CHANNELS 3 Zrotation Yrotation Xrotation
											JOINT RightHandRing3
											{
												OFFSET 0.000000 3.654981 -0.000000
												CHANNELS 3 Zrotation Yrotation Xrotation
												JOINT RightHandRing4
												{
													OFFSET 0.000000 2.741236 -0.000000
													CHANNELS 3 Zrotation Yrotation Xrotation
													End Site
													{
														OFFSET 0.000000 0.000000 0.000000
													}
												}
											}
										}
									}
									JOINT RightHandPinky1
									{
										OFFSET -0.173504 7.976997 -4.467199
										CHANNELS 3 Zrotation Yrotation Xrotation
										JOINT RightHandPinky2
										{
											OFFSET 0.000000 3.350399 -0.000000
											CHANNELS 3 Zrotation Yrotation Xrotation
											JOINT RightHandPinky3
											{
												OFFSET -0.000000 2.842763 0.000000
												CHANNELS 3 Zrotation Yrotation Xrotation
												JOINT RightHandPinky4
												{
													OFFSET -0.000000 2.639709 0.000000
													CHANNELS 3 Zrotation Yrotation Xrotation
													End Site
													{
														OFFSET 0.000000 0.000000 0.000000
													}
												}
											}
										}
									}
									JOINT RightForeArmEnd
									{
										OFFSET 0.000000 0.000000 0.000000
										CHANNELS 3 Zrotation Yrotation Xrotation
										End Site
										{
											OFFSET 0.000000 0.000000 0.000000
										}
									}
								}
								JOINT RightArmEnd
								{
									OFFSET 0.000000 0.000000 0.000000
									CHANNELS 3 Zrotation Yrotation Xrotation
									End Site
									{
										OFFSET 0.000000 0.000000 0.000000
									}
								}
							}
						}
					}
					JOINT LeftShoulder
					{
						OFFSET 2.625389 11.175210 0.000000
						CHANNELS 3 Zrotation Yrotation Xrotation
						JOINT LeftArm
						{
							OFFSET 0.000000 10.813635 -0.000000
							CHANNELS 3 Zrotation Yrotation Xrotation
							JOINT LeftForeArm
							{
								OFFSET 0.000000 28.724781 0.000000
								CHANNELS 3 Zrotation Yrotation Xrotation
								JOINT LeftHand
								{
									OFFSET 0.644384 25.716167 -0.328871
									CHANNELS 3 Zrotation Yrotation Xrotation
									JOINT LeftHandThumb1
									{
										OFFSET 2.867323 3.959563 2.944291
										CHANNELS 3 Zrotation Yrotation Xrotation
										JOINT LeftHandThumb2
										{
											OFFSET 0.000000 3.350399 0.000000
											CHANNELS 3 Zrotation Yrotation Xrotation
											JOINT LeftHandThumb3
											{
												OFFSET -0.000000 3.756509 0.000000
												CHANNELS 3 Zrotation Yrotation Xrotation
												JOINT LeftHandThumb4
												{
													OFFSET -0.000000 3.100000 0.000000
													CHANNELS 3 Zrotation Yrotation Xrotation
													End Site
													{
														OFFSET 0.000000 0.000000 0.000000
													}
												}
											}
										}
									}
									JOINT LeftHandIndex1
									{
										OFFSET 0.086752 10.030893 2.345280
										CHANNELS 3 Zrotation Yrotation Xrotation
										JOINT LeftHandIndex2
										{
											OFFSET -0.000000 4.061090 -0.000000
											CHANNELS 3 Zrotation Yrotation Xrotation
											JOINT LeftHandIndex3
											{
												OFFSET 0.000000 3.248873 -0.000000
												CHANNELS 3 Zrotation Yrotation Xrotation
												JOINT LeftHandIndex4
												{
													OFFSET 0.000000 2.639709 -0.000000
													CHANNELS 3 Zrotation Yrotation Xrotation
													End Site
													{
														OFFSET 0.000000 0.000000 0.000000
													}
												}
											}
										}
									}
									JOINT LeftHandMiddle1
									{
										OFFSET -0.104102 9.502952 0.006768
										CHANNELS 3 Zrotation Yrotation Xrotation
										JOINT LeftHandMiddle2
										{
											OFFSET -0.000000 4.568727 -0.000000
											CHANNELS 3 Zrotation Yrotation Xrotation
											JOINT LeftHandMiddle3
											{
												OFFSET 0.000000 3.654981 0.000000
												CHANNELS 3 Zrotation Yrotation Xrotation
												JOINT LeftHandMiddle4
												{
													OFFSET 0.000000 2.741236 -0.000000
													CHANNELS 3 Zrotation Yrotation Xrotation
													End Site
													{
														OFFSET 0.000000 0.000000 0.000000
													}
												}
											}
										}
									}
									JOINT LeftHandRing1
									{
										OFFSET -0.086752 8.921708 -2.267442
										CHANNELS 3 Zrotation Yrotation Xrotation
										JOINT LeftHandRing2
										{
											OFFSET 0.000000 4.061090 0.000000
											CHANNELS 3 Zrotation Yrotation Xrotation
											JOINT LeftHandRing3
											{
												OFFSET 0.000000 3.654981 0.000000
												CHANNELS 3 Zrotation Yrotation Xrotation
												JOINT LeftHandRing4
												{
													OFFSET 0.000000 2.741236 0.000000
													CHANNELS 3 Zrotation Yrotation Xrotation
													End Site
													{
														OFFSET 0.000000 0.000000 0.000000
													}
												}
											}
										}
									}
									JOINT LeftHandPinky1
									{
										OFFSET 0.173504 7.976997 -4.467199
										CHANNELS 3 Zrotation Yrotation Xrotation
										JOINT LeftHandPinky2
										{
											OFFSET -0.000000 3.350399 -0.000000
											CHANNELS 3 Zrotation Yrotation Xrotation
											JOINT LeftHandPinky3
											{
												OFFSET 0.000000 2.842763 0.000000
												CHANNELS 3 Zrotation Yrotation Xrotation
												JOINT LeftHandPinky4
												{
													OFFSET -0.000000 2.639709 -0.000000
													CHANNELS 3 Zrotation Yrotation Xrotation
													End Site
													{
														OFFSET 0.000000 0.000000 0.000000
													}
												}
											}
										}
									}
									JOINT LeftForeArmEnd
									{
										OFFSET 0.000000 0.000000 0.000000
										CHANNELS 3 Zrotation Yrotation Xrotation
										End Site
										{
											OFFSET 0.000000 0.000000 0.000000
										}
									}
								}
								JOINT LeftArmEnd
								{
									OFFSET 0.000000 0.000000 0.000000
									CHANNELS 3 Zrotation Yrotation Xrotation
									End Site
									{
										OFFSET 0.000000 0.000000 0.000000
									}
								}
							}
						}
					}
				}
			}
		}
	}
	JOINT RightUpLeg
	{
		OFFSET -11.289943 0.000000 0.000000
		CHANNELS 3 Zrotation Yrotation Xrotation
		JOINT RightLeg
		{
			OFFSET 0.000000 -38.200325 0.000000
			CHANNELS 3 Zrotation Yrotation Xrotation
			JOINT RightFoot
			{
				OFFSET -0.000000 -39.900856 -0.000000
				CHANNELS 3 Zrotation Yrotation Xrotation
				JOINT RightToeBase
				{
					OFFSET 0.000000 0.000000 15.261641
					CHANNELS 3 Zrotation Yrotation Xrotation
					JOINT RightToeBaseEnd
					{
						OFFSET 0.000000 0.000000 7.370709
						CHANNELS 3 Zrotation Yrotation Xrotation
						End Site
						{
							OFFSET 0.000000 0.000000 0.000000
						}
					}
				}
				JOINT RightLegEnd
				{
					OFFSET 0.000000 0.000000 0.000000
					CHANNELS 3 Zrotation Yrotation Xrotation
					End Site
					{
						OFFSET 0.000000 0.000000 0.000000
					}
				}
			}
			JOINT RightUpLegEnd
			{
				OFFSET 0.000000 0.000000 0.000000
				CHANNELS 3 Zrotation Yrotation Xrotation
				End Site
				{
					OFFSET 0.000000 0.000000 0.000000
				}
			}
		}
	}
	JOINT LeftUpLeg
	{
		OFFSET 11.315661 -0.000000 0.000000
		CHANNELS 3 Zrotation Yrotation Xrotation
		JOINT LeftLeg
		{
			OFFSET -0.000000 -38.200325 -0.000000
			CHANNELS 3 Zrotation Yrotation Xrotation
			JOINT LeftFoot
			{
				OFFSET 0.000000 -39.900856 -0.000000
				CHANNELS 3 Zrotation Yrotation Xrotation
				JOINT LeftToeBase
				{
					OFFSET -0.000000 -0.000000 15.261641
					CHANNELS 3 Zrotation Yrotation Xrotation
					JOINT LeftToeBaseEnd
					{
						OFFSET 0.000000 -0.000000 7.539996
						CHANNELS 3 Zrotation Yrotation Xrotation
						End Site
						{
							OFFSET 0.000000 0.000000 0.000000
						}
					}
				}
				JOINT LeftLegEnd
				{
					OFFSET 0.000000 0.000000 0.000000
					CHANNELS 3 Zrotation Yrotation Xrotation
					End Site
					{
						OFFSET 0.000000 0.000000 0.000000
					}
				}
			}
			JOINT LeftUpLegEnd
			{
				OFFSET 0.000000 0.000000 0.000000
				CHANNELS 3 Zrotation Yrotation Xrotation
				End Site
				{
					OFFSET 0.000000 0.000000 0.000000
				}
			}
		}
	}
}
MOTION
Frames: 4
Frame Time: 0.016667
0.398227 88.643158 3.172308 0.791954 -0.169023 -10.739682 0.370354 0.200657 7.543226 -0.693468 0.374540 2.264290 -0.511379 0.178420 5.933993 -1.168725 0.449911 4.896432 2.450606 0.418631 6.109804 0.437437 1.040300 -2.714712 -0.110405 -0.719222 -20.428215 0.000000 0.000000 0.000000 92.463310 -0.225678 9.834956 70.119919 -22.199263 1.686324 0.514823 18.874332 27.702610 -3.536978 13.855626 -10.077505 17.936499 30.752815 63.958549 -6.382977 -8.533301 -14.859361 -4.705758 -5.596900 -10.211342 0.000000 0.000000 0.000000 -2.761059 -8.537921 6.755867 2.936497 0.487581 0.790102 2.571314 0.047107 0.816224 0.000000 0.000000 0.000000 -2.431566 -3.007693 3.671265 1.861299 0.499408 0.276868 2.153989 -0.003051 0.250565 0.000000 0.000000 0.000000 -0.065255 4.620310 0.592590 2.153419 -0.972066 -0.488707 2.115349 -0.001126 -0.336790 0.000000 0.000000 0.000000 1.021335 12.740685 -2.898807 2.662952 -1.890416 -1.398293 2.457053 0.063723 -1.138541 0.000000 0.000000 0.000000 0.000000 0.000000 0.000000 0.000000 0.000000 0.000000 -89.855080 -0.073697 4.825379 -71.335396 12.790572 -5.229694 -0.339340 -13.555374 62.176315 15.039948 -1.600862 -9.218052 -15.907575 -31.488720 66.097527 3.999947 4.412172 -8.218558 2.750758 3.017166 -5.905748 0.000000 0.000000 0.000000 12.694381 -11.345369 14.816005 -1.175021 0.502787 -0.555399 -1.194110 0.038364 -0.563673 0.000000 0.000000 0.000000 11.965616 -5.821187 9.302130 -1.136949 0.494174 -0.257862 -1.479786 0.002176 -0.211842 0.000000 0.000000 0.000000 8.937219 2.942199 2.570882 -2.820433 -0.988884 0.511007 -2.797448 -0.002021 0.400144 0.000000 0.000000 0.000000 4.173972 12.806740 -4.506343 -4.728854 -1.865111 1.849009 -4.454782 0.154483 1.641805 0.000000 0.000000 0.000000 0.000000 0.000000 0.000000 0.000000 0.000000 0.000000 -1.853741 -9.013198 15.054131 -0.099323 -0.784669 5.693668 -2.587896 -7.254243 15.965703 -0.839086 0.847475 -18.295338 0.000000 0.000000 0.000000 0.000000 0.000000 0.000000 0.000000 0.000000 0.000000 -2.703235 -5.722864 9.481481 0.041219 0.256906 9.906901 4.364363 -1.527690 16.665869 0.242826 -0.493884 -20.505945 0.000000 0.000000 0.000000 0.000000 0.000000 0.000000 0.000000 0.000000 0.000000 
0.412202 88.642929 3.194083 0.811675 -0.188101 -10.767944 0.369475 0.199914 7.557166 -0.691667 0.378983 2.260495 -0.532817 0.192587 5.952341 -1.172881 0.445983 4.884269 2.431169 0.448256 6.059124 0.443880 1.053491 -2.741024 -0.113965 -0.732869 -20.402000 0.000000 0.000000 0.000000 92.455704 -0.231249 9.854127 70.089951 -22.221308 1.663835 0.519501 18.842175 27.791130 -3.497786 13.850018 -10.110466 17.923967 30.756348 63.973633 -6.372100 -8.504381 -14.818392 -4.695772 -5.579227 -10.182115 0.000000 0.000000 0.000000 -2.775254 -8.520837 6.751850 2.882404 0.486175 0.796677 2.517040 0.045566 0.822927 0.000000 0.000000 0.000000 -2.417991 -3.001996 3.674141 1.809498 0.499303 0.280050 2.107506 -0.003381 0.253093 0.000000 0.000000 0.000000 0.016865 4.604712 0.606148 2.132694 -0.971853 -0.491012 2.095903 -0.000882 -0.338128 0.000000 0.000000 0.000000 1.159928 12.716235 -2.890387 2.682433 -1.889982 -1.400935 2.469073 0.063581 -1.140255 0.000000 0.000000 0.000000 0.000000 0.000000 0.000000 0.000000 0.000000 0.000000 -89.840263 -0.081528 4.829360 -71.350594 12.724547 -5.187159 -0.347950 -13.589616 62.608131 15.018745 -1.602654 -8.994577 -15.922159 -31.481171 66.078728 4.025483 4.445944 -8.276626 2.770813 3.041062 -5.944358 0.000000 0.000000 0.000000 12.541105 -11.306248 14.768470 -1.144574 0.501170 -0.560152 -1.166652 0.037234 -0.566884 0.000000 0.000000 0.000000 11.798661 -5.789682 9.275093 -1.115458 0.493597 -0.259297 -1.449717 0.002002 -0.213300 0.000000 0.000000 0.000000 8.709277 2.972246 2.555925 -2.812279 -0.988467 0.514495 -2.787161 -0.001525 0.401648 0.000000 0.000000 0.000000 3.926161 12.829271 -4.499333 -4.741604 -1.862906 1.857549 -4.471237 0.156167 1.648310 0.000000 0.000000 0.000000 0.000000 0.000000 0.000000 0.000000 0.000000 0.000000 -1.892613 -9.011100 15.065644 -0.099653 -0.784401 5.737964 -2.563081 -7.277579 15.947558 -0.839715 0.848611 -18.286171 0.000000 0.000000 0.000000 0.000000 0.000000 0.000000 0.000000 0.000000 0.000000 -2.725401 -5.697903 9.512214 0.040804 0.258077 9.885864 4.362970 -1.545838 16.668087 0.242246 -0.497475 -20.509138 0.000000 0.000000 0.000000 0.000000 0.000000 0.000000 0.000000 0.000000 0.000000 
0.428567 88.642838 3.216381 0.830589 -0.217174 -10.796004 0.371497 0.198387 7.568755 -0.689650 0.382702 2.254774 -0.553464 0.200376 5.974465 -1.178568 0.439545 4.873330 2.409767 0.476768 6.006401 0.451867 1.067487 -2.763561 -0.119356 -0.748010 -20.379675 0.000000 0.000000 0.000000 92.444481 -0.237106 9.873047 70.054321 -22.249922 1.652678 0.516605 18.825665 27.937426 -3.453657 13.807764 -10.121819 17.912529 30.759264 63.987034 -6.362813 -8.477478 -14.781340 -4.686847 -5.562816 -10.155503 0.000000 0.000000 0.000000 -2.777868 -8.507552 6.752039 2.832214 0.485383 0.802029 2.467092 0.044727 0.828613 0.000000 0.000000 0.000000 -2.394017 -2.999054 3.678505 1.762313 0.499391 0.282743 2.065623 -0.003424 0.255205 0.000000 0.000000 0.000000 0.110528 4.587064 0.618068 2.118831 -0.972073 -0.492793 2.082911 -0.000948 -0.339211 0.000000 0.000000 0.000000 1.310740 12.690194 -2.889159 2.707850 -1.890562 -1.401326 2.487187 0.062460 -1.140476 0.000000 0.000000 0.000000 0.000000 0.000000 0.000000 0.000000 0.000000 0.000000 -89.822739 -0.088584 4.831631 -71.366913 12.642940 -5.157376 -0.354547 -13.638724 63.082806 14.969660 -1.623176 -8.757608 -15.942533 -31.471256 66.053482 4.058549 4.491228 -8.352609 2.796358 3.072588 -5.995836 0.000000 0.000000 0.000000 12.354425 -11.260859 14.724585 -1.096389 0.500253 -0.561864 -1.122555 0.036741 -0.567491 0.000000 0.000000 0.000000 11.599250 -5.751812 9.247747 -1.078606 0.493345 -0.259767 -1.405325 0.002039 -0.214047 0.000000 0.000000 0.000000 8.444165 3.009278 2.534323 -2.794470 -0.988181 0.517140 -2.766136 -0.001117 0.402641 0.000000 0.000000 0.000000 3.638512 12.861291 -4.509339 -4.751761 -1.861128 1.865521 -4.484222 0.157528 1.654771 0.000000 0.000000 0.000000 0.000000 0.000000 0.000000 0.000000 0.000000 0.000000 -1.929814 -9.000729 15.074947 -0.099909 -0.783297 5.785268 -2.541414 -7.286296 15.928835 -0.840682 0.849716 -18.275557 0.000000 0.000000 0.000000 0.000000 0.000000 0.000000 0.000000 0.000000 0.000000 -2.748621 -5.672560 9.544544 0.040309 0.258787 9.869242 4.361298 -1.558206 16.667372 0.241108 -0.501053 -20.511156 0.000000 0.000000 0.000000 0.000000 0.000000 0.000000 0.000000 0.000000 0.000000 
0.447382 88.643051 3.238758 0.847993 -0.253403 -10.822642 0.376725 0.196312 7.577750 -0.687557 0.385564 2.247590 -0.572597 0.201778 6.000054 -1.185203 0.431120 4.862621 2.389663 0.502143 5.948884 0.461227 1.082138 -2.782898 -0.126051 -0.764145 -20.361286 0.000000 0.000000 0.000000 92.428055 -0.242832 9.893534 70.013313 -22.281534 1.647086 0.506234 18.823732 28.151031 -3.402510 13.743879 -10.106614 17.904074 30.760897 63.996704 -6.357636 -8.456197 -14.754606 -4.680838 -5.550111 -10.135723 0.000000 0.000000 0.000000 -2.754038 -8.500975 6.753314 2.794811 0.484830 0.807198 2.430611 0.044218 0.834284 0.000000 0.000000 0.000000 -2.346058 -3.001610 3.682359 1.728821 0.499510 0.285289 2.037804 -0.003322 0.257223 0.000000 0.000000 0.000000 0.228377 4.565253 0.627270 2.121529 -0.972512 -0.494472 2.086131 -0.001191 -0.340337 0.000000 0.000000 0.000000 1.485093 12.661285 -2.895800 2.747577 -1.891535 -1.400477 2.520169 0.060888 -1.140002 0.000000 0.000000 0.000000 0.000000 0.000000 0.000000 0.000000 0.000000 0.000000 -89.802902 -0.094179 4.832614 -71.388771 12.539780 -5.138518 -0.359297 -13.702111 63.604439 14.896935 -1.663640 -8.505942 -15.970629 -31.458286 66.019501 4.101503 4.552161 -8.452896 2.829296 3.114465 -6.064869 0.000000 0.000000 0.000000 12.120550 -11.207507 14.683176 -1.031981 0.499864 -0.561011 -1.063045 0.036673 -0.565922 0.000000 0.000000 0.000000 11.353628 -5.705344 9.219731 -1.027815 0.493361 -0.259495 -1.347827 0.002213 -0.214214 0.000000 0.000000 0.000000 8.127658 3.056160 2.506145 -2.769190 -0.987934 0.519096 -2.736944 -0.000728 0.403296 0.000000 0.000000 0.000000 3.297455 12.905468 -4.536969 -4.761749 -1.859481 1.873417 -4.496225 0.158875 1.661630 0.000000 0.000000 0.000000 0.000000 0.000000 0.000000 0.000000 0.000000 0.000000 -1.963836 -8.983855 15.083143 -0.100072 -0.781452 5.831253 -2.522446 -7.281470 15.911655 -0.842032 0.850834 -18.263731 0.000000 0.000000 0.000000 0.000000 0.000000 0.000000 0.000000 0.000000 0.000000 -2.771858 -5.646315 9.577708 0.039759 0.259042 9.855865 4.359962 -1.564926 16.665440 0.239458 -0.504593 -20.511768 0.000000 0.000000 0.000000 0.000000 0.000000 0.000000 0.000000 0.000000 0.000000 
